<?xml version="1.0" encoding="UTF-8"?>
<!DOCTYPE svg PUBLIC "-//W3C//DTD SVG 1.1//EN" "http://www.w3.org/Graphics/SVG/1.1/DTD/svg11.dtd">
<!-- Creator: CorelDRAW 2021.5 -->
<svg xmlns="http://www.w3.org/2000/svg" xml:space="preserve" width="1in" height="1in" version="1.1" style="shape-rendering:geometricPrecision; text-rendering:geometricPrecision; image-rendering:optimizeQuality; fill-rule:evenodd; clip-rule:evenodd"
viewBox="0 0 1000 1000"
 xmlns:xlink="http://www.w3.org/1999/xlink"
 xmlns:xodm="http://www.corel.com/coreldraw/odm/2003">
 <defs>
  <style type="text/css">
   <![CDATA[
    .fil0 {fill:#231F20}
    .fil2 {fill:#ED1C24}
    .fil3 {fill:#F9A627}
    .fil1 {fill:#FDF584}
   ]]>
  </style>
 </defs>
 <g id="Layer_x0020_1">
  <metadata id="CorelCorpID_0Corel-Layer"/>
  <g id="_1454805012608">
   <path class="fil0" d="M325.18 126.57c0,1.7 10.59,13.74 13.23,17.13l9.17 11.07c13.75,15.76 28.46,35.17 41.26,49.82l9.52 11.5c-9.47,5.01 -29.06,20.81 -37.17,29 -2.38,2.41 -4.22,4.23 -6.62,6.62 -14.43,14.34 -36.35,44.2 -44.96,60.91 -3,5.83 -5.95,11.15 -9.07,17.39 -11.9,23.79 -21.17,49.33 -28.29,77.58 -3.56,14.14 -6.35,28.95 -8.52,44.42 -9.98,71.33 -2.11,149.92 24.42,216.04 1.76,4.37 3.42,8.25 5,12.12 13.67,33.41 30.93,57.29 52.93,84.85 2.67,3.34 5.34,5.16 8.23,8.9 5.67,7.35 28.37,25.37 37.36,31.92 11.41,8.31 32.25,18.8 45.11,23.39 22.83,8.15 38.71,11.19 65.88,11.19 39.4,0 80.06,-17.93 103.09,-34.7l19.37 -14.88c12.57,-10.56 23.74,-22.41 34.12,-35.16 29.54,-36.27 49.57,-79.63 63.22,-126.72 3.48,-12.02 7.46,-30.37 9.51,-42.65 9.58,-57.33 7.65,-121.94 -6.52,-178.09 -7.16,-28.37 -16.41,-54.15 -28.18,-77.69 -3.03,-6.05 -5.76,-11.38 -9.1,-17.37 -5.59,-9.99 -13.73,-22.93 -20.69,-32.24 -4.15,-5.54 -13.27,-17.24 -17.9,-21.81 -2.57,-2.54 -3.59,-4.43 -6.21,-7.02 -9.06,-8.96 -17.56,-17.22 -27.94,-24.99 -5.31,-3.98 -10.29,-7.86 -16.24,-11.01 0.97,-1.45 3.18,-4.12 4.5,-5.62 1.78,-2.04 2.84,-3.46 4.64,-5.48l45.89 -55.31c3.81,-4.53 18.15,-19.8 18.15,-24.67 0,-2.42 -0.44,-1.01 -4.09,-4.47l-15.04 -12.21c-7.36,-5.55 -13.56,-9.39 -21.6,-14.21 -15.46,-9.27 -31.3,-16.1 -48.91,-22.71 -21.9,-8.22 -52.52,-11.7 -70.96,-36.47 -11.43,-15.35 -7.61,-22.81 -13,-22.81 -6.06,0 -2.63,22.15 -31.95,39.67 -7.9,4.72 -14.85,7.98 -24.59,11.22 -17.1,5.69 -22.4,6.22 -40.89,13.61 -4.58,1.83 -8.39,3.81 -12.45,5.45 -4.44,1.8 -7.87,3.54 -12.09,5.81 -3.97,2.14 -7.54,4.19 -11.4,6.5 -11.37,6.8 -16.48,10.52 -26.45,17.93 -2.26,1.69 -3.13,2.63 -5.11,4.23 -2.21,1.78 -2.89,2.43 -4.99,4.35 -1.99,1.83 -3.68,2.07 -3.68,5.66zm161.5 66.37c-51.75,4.06 -85.25,25.95 -117.79,54.41 -15.53,13.59 -35.56,39.25 -46.36,57.17 -77.27,128.11 -75.24,310.34 9.75,431.48 96.18,137.09 256.28,126.75 342.64,-14.48 36.56,-59.78 58.29,-135.96 55.87,-220.52 -2.37,-82.92 -27.38,-156.75 -65.37,-211.02 -30.5,-43.57 -92.18,-103.83 -178.74,-97.05z"/>
   <path class="fil0" d="M334.52 816.28c-7.42,-0.17 -21.69,-6.92 -26.47,-10.12 1.93,-8.26 10.32,-16.25 7.92,-38.28 -3.86,-35.39 -19.67,-44.43 -35.61,-71.04 -9.11,-15.22 -6.35,-17.58 -10.45,-26.13l-3.89 0c-2.61,3.9 -5.37,12.24 -6.93,17.2 -1.74,5.54 -2.42,14.48 -2.42,21.72 -7.49,-5.02 -15.92,-11.06 -21.02,-18.68 1.08,-1.61 3.37,-4.17 4.91,-5.99 2.13,-2.52 2.83,-3.18 4.75,-6.15 10.24,-15.78 14.34,-32.96 11.04,-53.72 -3.04,-19.1 -10.31,-34.34 -13.06,-53.11 -0.72,-4.92 0.55,-17.91 -0.64,-20.38 -5.14,-5.14 -18.51,18.26 -20.25,21.78 -1,2.02 -3.67,8.37 -3.88,10.91 -4.9,-3.59 -13.87,-20.13 -14.01,-26.47 6.69,-1.56 15.42,-9.17 20.06,-14.2 17.93,-19.44 22.9,-42.86 22.75,-69.11 -0.05,-8.42 1.5,-25.23 3.27,-31.76 0.65,-2.4 1.92,-6.41 2.98,-8.7 5.17,-11.17 0.71,-10.6 -8.33,-5.21 -6.32,3.76 -11.97,7.47 -16.48,13.1 -1.24,1.55 -2,2.2 -3.22,3.79 -1.45,1.91 -1.84,2.51 -3.9,3.89 -0.77,-9.27 -4.67,-13.89 -4.67,-28.03 13.24,-0.3 30.65,-14.67 38.26,-24.01 10.49,-12.86 14.18,-24.78 18.88,-43.4 3.55,-14.06 5.87,-28.58 13.83,-40.67 1.35,-2.05 2.47,-2.71 3.51,-4.33 9.26,-14.45 -22.9,1.49 -27.67,5.07 -2.91,2.18 -5.86,5.04 -8.66,6.91l-0.78 -14.79c-0.02,-6.53 0.35,-9.61 1.56,-14.79 9.02,0 7.54,1.84 20.2,-0.83 17.39,-3.66 31.26,-13.02 42.32,-26.18 12.04,-14.31 20.75,-32.99 36.69,-43.49 2.72,-1.79 5,-2.54 6.67,-5.02l-0.88 -3.08c-4.32,-1.06 -14.49,-1.96 -19.72,-1.17 -3.6,0.55 -6.06,0.74 -9.27,1.63 -3.31,0.92 -5.64,2.34 -9.06,2.62 4.69,-9.78 3.71,-14.22 11.36,-25.23 3.8,-5.47 7.95,-10.8 13.27,-14.77 2.69,-2 3.45,-2.59 1.84,-5.93 -4.85,-4.84 -37.64,9.28 -45.16,13.22 -2.24,1.18 -3.45,2.48 -6.22,3.12 0,-15.86 3.39,-23.26 -7.41,-36.96 -1.78,-2.26 -1.03,-1.98 -4.27,-2.74 -4.74,4.12 -2.86,15.58 -17.24,33.37 -12.97,16.06 -36.2,21.94 -40.37,60.82 -1.52,14.11 -0.74,31.46 5.45,44.38 -6.06,4.06 -9.97,13.02 -15.57,17.13 -2.34,-10.06 -3.56,-14.83 -8.7,-22.44 -2.65,-3.93 -12.62,-14.66 -18.54,-11.81 -1.22,1.22 0.85,17.36 0.23,22.03 -1.04,7.89 -2.15,13.86 -4.89,20.8 -9.63,24.3 -26.51,36.96 -13.53,78.9 2.78,9 7.6,17.19 12.96,24.41 2.08,2.81 4.43,4.85 6.02,7.22 -1.54,5.75 -7.17,11.12 -8.56,17.13l-1.56 0c-0.47,-5.64 -7.53,-16.06 -11.89,-20.02l-9.79 -6.56c-4.35,-1.96 -7.46,-3.73 -11.79,-1.44 0.08,3.61 1.56,6.58 2.64,9.82 10.88,32.48 -9.36,49.99 -6.42,77.26 3.08,28.53 18.3,52.03 37.26,64.72 -0.3,3.57 -1.74,7.49 -2.54,11.48 -0.66,3.32 -1.3,8.31 -2.13,11.88 -3.43,-2.3 -5.52,-5.57 -8.79,-8.33 -3.07,-2.6 -6.5,-4.99 -10.44,-6.69 -4.91,-2.11 -29.39,-7.41 -19.55,3.96 28.3,32.68 3.28,59.35 31.76,96.71l7.97 9.15c7.39,7.23 15.94,12.87 25.25,17.57 4.38,2.21 8.78,3.1 12.72,5.18 0,5.29 1.6,18.64 3.11,21.8 -6.7,-1.56 -11.42,-6.29 -21.2,-7.6 -8.78,-1.17 -20.03,0.57 -23.17,5.27 1.37,5.89 15.64,8.7 27.02,27.48 7.19,11.87 10.05,26.25 17.66,37.61 13.24,19.77 37.09,33.24 61.17,34.58 3.47,0.19 3.02,0.76 6.25,0.76 3.51,0 2.6,-0.71 6.22,-0.79l11.68 21.8c-12.23,0 -24.32,-2.38 -35.05,5.43 -16.6,12.09 -2.24,7.87 18.45,18.17 12.8,6.37 16.23,13.04 24.57,21.36 5.26,5.25 7.98,8.78 14.06,13.96 33.09,28.16 79.77,21.81 121.14,13.4 7.95,-1.62 11.74,-1.14 17.64,7.41 0.75,1.08 1.18,1.9 1.8,2.87 1.28,1.98 0.95,0.45 1.64,3.03 -8.48,0.71 -13.81,7.95 -41.4,4.81 -12.88,-1.46 -33.12,-4.76 -22.44,15.43 -15.41,7.39 -39.55,4.46 -55.7,0.43 -5.55,-1.38 -11.31,-4.8 -16.69,-3.55 -1.33,5.2 2.54,5.57 6.48,7.53 5.66,2.81 23.71,12.37 28.54,13.49 -1.3,4.86 -7.62,8.52 -10.12,13.23 3.52,4.05 3.36,3.12 9.98,4.04 4.3,0.59 8.29,1.06 13.31,1.48 9.52,0.8 18.61,0.91 28.16,0 8.85,-0.83 16.92,-2.79 23.56,-6.02 6.67,-3.24 12.67,-9.73 4.81,-14.71l-1.48 -0.86c-0.1,-0.06 -0.34,-0.17 -0.5,-0.28 19.92,0 38.81,-6.9 46.7,-18.68 9.03,4.77 8.81,0.73 16.35,0.73 3.96,0 4.59,1.63 8.56,1.65 3.24,0.02 5.71,-1.29 7.78,-2.38 7.92,11.82 26.69,18.68 46.71,18.68 -0.16,0.11 -0.43,0.04 -0.5,0.28l-0.99 0.57c-14.92,9.12 10.56,19.53 25.69,20.89 7.97,0.72 18.02,1.83 26.97,0.63 5.21,-0.7 21.52,-1.96 25.12,-3.68 4.17,-4.17 -7.41,-11.27 -8.56,-15.57 5.27,-1.23 13.41,-6.23 18.67,-8.57l14.08 -6.94c2.37,-1.28 3.82,-2.65 2.16,-5.46 -5.26,-1.31 -10.46,1.84 -16.07,3.23 -5.4,1.34 -11.96,3 -18.18,3.62 -3.63,0.36 -7.07,0.75 -10.02,0.92 -7.6,0.44 -22.13,-1.87 -28.01,-4.69 10.7,-20.22 -9.57,-16.89 -22.43,-15.43 -10.02,1.14 -22.41,1.24 -31.98,-1.78 -2.98,-0.94 -6.16,-2.27 -9.43,-3.04 0.8,-2.99 3.06,-5.76 5.23,-8 2.81,-2.91 3.98,-3.83 7.22,-6.01 9.73,2.27 14.44,6.91 33.65,2.51 5.49,-1.26 10.3,-2.9 14.75,-4.71 5.5,-2.24 7.57,-4.8 13.98,-5.49 7.17,-0.77 11.36,1.15 16.86,2.42 10.73,2.48 32.78,3.34 41.37,-4.9 10.46,-10.03 3.68,-6.86 20.95,-8.63 4.61,-0.47 12.8,-1.44 16.49,-2.97 14.8,-6.15 4.99,-24.48 24.37,-34.02 4.5,-2.22 8.91,-3.8 10.36,-9.14 2.03,-7.5 -2.63,-9.58 -7.93,-10.9 -5.57,-1.39 -10.25,-2.54 -15.13,-5.12 0,-16.36 4.57,-27.94 22.59,-28.79 6.23,-0.3 9.75,-1.01 14.79,-2.34 7.2,-1.9 18.94,-6.25 23.57,-10.69 10.53,-10.11 0.71,-12.07 16.46,-18.57 6.72,-2.78 17.65,-7.66 21.61,-12.63 6.9,-8.65 -0.96,-19.11 3.73,-29.75 3.26,-7.4 13.82,-11.88 12.46,-21.7 -1.48,-10.65 -16.98,-3.92 -27.23,-6.31 -0.93,-11.25 -4.01,-7.78 -2.11,-21.58 1.19,-8.65 4.41,-9.81 13.01,-14.24 10.09,-5.19 22.41,-15.1 27.54,-25.39 3.68,-7.39 0.84,-8.08 2.12,-15.79 0.66,-3.96 5.3,-7.25 7.93,-9.98 1.79,-1.86 2.18,-2.77 3.88,-4.68 1.6,-1.8 2.35,-2.85 3.88,-4.69 14.64,-17.66 -4.51,-21.95 -3.23,-38.21 0.61,-7.78 9.83,-21.21 0.82,-26.76 -6.89,-4.24 -16.69,7.17 -25.8,7.17 -3.12,-5.89 -7.61,-8.91 -9.34,-16.35 3.47,-5.19 11.28,-8.67 15.76,-13.82 1.4,-1.61 1.64,-2.22 3.12,-3.88 21.4,-23.96 8.49,-29.8 12.58,-37.98 3.29,-6.58 8.03,-12.06 11.62,-18.78 12.35,-23.14 -11.61,-19.52 -8.74,-44.56 0.15,-1.27 5.55,-21.44 -7.67,-19.44 -6.61,1 -12.01,9.97 -18.89,11.57 -4.04,-0.07 -12.84,-12.25 -14.85,-17.88 -2.91,-8.12 5.12,-18.7 7.86,-24.15 2.7,-5.39 7.13,-17.87 7.7,-25.05 0.41,-5.24 -1.65,-9.34 -3.93,-12.22 -5.48,-6.94 -2.13,-10.54 0.47,-27 3.04,-19.27 -14.94,-13.2 -22.94,-26.04 -4.1,-6.59 -1.79,-21.25 -14.61,-18.57 -5.35,1.12 -7.87,9.94 -10.95,14.03 -1.43,1.9 -2.63,2.47 -4.02,4.54 -5.93,-1.38 -18.13,-4.49 -21.19,-9.98 -2.91,-5.22 4.89,-17.8 6.08,-23.81 6.57,-33.25 -3.95,-27.97 -7.08,-35.87 -4.02,-10.15 7.49,-31.17 -8.71,-37.22 -8.53,-3.19 -15.5,-2.53 -19.99,-11.93 -2.79,-5.84 -7.32,-18.24 -16.07,-12 -4.2,3 -5.49,10.74 -8,15.37 -1.49,2.76 -2.18,2.68 -3.66,4.9 -6.57,-1.53 -12.84,-1.28 -18.65,-4.71 -13.65,-8.06 -26.46,-1.83 -18.16,15.05 2.81,5.72 5.67,10.44 5.67,17.69l-16.56 -2.91c-5.74,-0.75 -12.58,-0.78 -16.92,2.13 0,6.34 -0.44,6.75 2.07,11.17 5.27,9.26 11.44,10.63 16.74,23.74 6.28,15.55 5.22,22.94 21.21,32.5 5.54,3.31 11.87,5.98 16.24,10.23 5.52,5.36 7.45,9.33 16.33,10.91 7.46,1.33 30.13,5.94 34.58,12.91 1.29,2.02 0.33,1.77 0.25,5.19 -7.41,-3.92 -16.37,-5.95 -25.37,-7.41 -2.21,-0.36 -2.14,-0.78 -4.5,0.05 -2.7,0.96 -3.27,2.7 -3.6,5.09 -0.04,0.28 -0.07,2.7 -0.04,3 0.41,5.16 3.72,9.38 6.38,13.17 14.75,21.02 2.17,34.9 24.61,53.23 2.43,1.98 4.52,3.46 6.94,5.51 2.64,2.23 4.75,3.62 6.82,6.41 4.19,5.66 6.33,10.39 13.54,12.92 9.01,3.17 19.56,5.5 24.76,14.19 2.36,3.95 0.22,6.97 -1.29,9.83 -2.65,-1.77 -4.85,-5.24 -7.2,-7.59 -5.93,-5.91 -19.59,-22.43 -24.09,-6.57 -0.92,3.22 -0.9,9.6 -0.2,13.75 0.89,5.33 1.19,7.46 1.17,13.68 -0.07,19.76 -10.5,29.9 -3.25,49.9 2.56,7.07 6.63,14.15 8.52,21.06 2.48,9.06 1.46,16.05 7.33,22.25 1.28,1.35 2.26,2.12 3.53,3.48 3.79,4.09 8.22,8.31 8.75,14.61 -3.19,-3.67 -9.16,-13.56 -14.55,-12.86 -3.45,0.44 -5.52,4.37 -6.6,7.28 -1.84,4.93 -1.32,6.78 -1.39,13.4 -0.37,33.19 -20,32.67 -10.47,70.35 2.64,10.43 3.15,14.11 3.4,25.41 0.29,12.85 11.22,17.5 12.45,30.39 0.55,5.8 0.04,6.85 0.04,13.17l-0.78 0c0,-10.36 -3.81,-21.32 -9.34,-29.58 -3.27,0 -3.16,-0.31 -5.46,0.76 -8.52,3.94 -11.83,19.15 -19.55,29.49 -8.37,11.22 -19.88,17.11 -25.28,30.77 -3.89,9.83 -3.43,23.37 -7.41,33.85 -1.45,3.82 -2.84,5.13 -3.91,10.12 -1.86,8.71 3.33,14.75 1.25,24.58 -1.17,5.49 -6.15,15.96 -9.69,18.33l2.3 -16.39c0.61,-7.35 0.63,-9.99 -3.07,-15.53 -5.39,0 -7.55,0.29 -10.89,2.35 -7.32,4.52 -11,12.13 -21.48,19 -11.46,7.51 -24.97,9.3 -33.48,20.23 -8.36,10.74 -11.48,23.15 -21.15,32.57 -11.92,11.63 -4.7,30.03 -16.54,37.95 0,-11.03 1.89,-18.02 -5.07,-22.95 -6.37,-4.51 -31.28,0.49 -51.46,-4.59 -8.38,-2.11 -12.59,-5.2 -23.63,-4.35 -12.85,0.98 -10.94,6.98 -49.07,6.98 -10.93,0 -17.89,-1.69 -22.11,5.91 -2.77,4.99 -1.24,19.61 -1.24,26.79 -7.02,-1.64 -2.42,-3.92 -3.3,-10.66 -0.62,-4.75 -1.03,-9.69 -2.14,-14.26 -13.13,-54.15 -60.62,-54.22 -80.4,-87.76 -2.88,-4.89 -6.67,-3.98 -6.84,2.09 -0.24,8.17 -0.98,14.18 1.12,22.33 1.06,4.13 3.3,9.2 3.59,12.75zm136.99 73.59c17.16,-10.72 37.48,-10.05 54.24,0.43l-12.17 16.25c-9.04,-2.29 -19.77,-3.94 -28.63,-0.35l-1.06 -0.77 -12.38 -15.55z"/>
   <path class="fil1" d="M333.5 125.51c0.97,3.28 6.28,8.72 8.52,11.46l44.47 53.61c3.12,3.72 5.79,7.08 8.8,10.67 2.34,2.78 7.03,9.13 9.29,10.69 12.63,-5.03 19.41,-11.68 41.5,-18.19 16.7,-4.93 34.1,-8.03 52.7,-8.02 25.46,0 51.58,5.87 74.15,16.16 6.66,3.04 14.44,7.87 20.05,10.08l62.22 -74.54c2.18,-2.59 7.94,-8.7 8.87,-11.93 -4.49,-2.52 -20.37,-16.78 -38.54,-26.82 -45.94,-25.39 -69.02,-24.59 -93.52,-38.04 -9.98,-5.48 -20.07,-13.62 -26.59,-22.45 -2.23,-3.02 -4.52,-7.7 -6.64,-10.25 -4.96,6.29 -4.28,9.25 -13.96,18.51 -21.79,20.81 -41.04,22.36 -67.29,31.51 -23.83,8.31 -44.91,19.35 -65.06,33.08l-18.96 14.48z"/>
   <path class="fil2" d="M483.22 603.98c-3.92,-0.99 -6.64,-4.76 -9.38,-7.19l-15.8 -16.91c-25.33,-32.98 -36.81,-74.55 -30.09,-117.04 2.11,-13.39 7.7,-31.89 14.47,-43.89 3.52,-6.24 1.91,-11.43 -9.25,2.44 -39.7,49.33 -41.83,117.07 -4.29,166.64 8.82,11.65 19.29,21.5 31.09,29.63 4.07,2.8 9.12,5.2 12.96,7.81 -5.83,6.58 -39.88,5.2 -45.75,6.17 0.81,2.79 1.09,2.33 4.65,3.26 23.9,6.28 29.07,4.26 52.94,3.57 4.05,4.11 8.94,16.65 14.01,18.69 3.4,0.09 9.63,-13.3 14.01,-18.62 10.85,-0.14 19.29,1.63 31.18,0.46l20.56 -3.78c4.38,-1.15 4.33,-0.71 5.95,-2.66l-2.45 -1.16c-0.48,-0.09 -2.47,-0.06 -3.05,-0.04 -2.43,0.09 -4.61,0.2 -7.07,0.17 -4.17,-0.06 -8.13,-0.35 -12.28,-0.83 -4.85,-0.57 -18.07,-2.27 -20.89,-5.08 5.46,-4.34 12.03,-5.93 23.91,-16.35 22.52,-19.74 38.73,-44.62 44.7,-77.42 6.36,-34.92 -1.38,-70.27 -19.9,-98.52 -2.94,-4.49 -5.69,-7.87 -8.64,-11.61 -2.13,-2.7 -8.26,-10.72 -10.62,-8.61 -0.81,1.04 -1.15,-0.63 -0.54,2.6 0.75,3.9 28.74,44.76 13.6,106.97 -6.79,27.89 -17.89,45.71 -34.51,65.21 -3.5,4.11 -12.74,13.59 -18.2,16.07 -0.3,-44.9 1.73,-98.61 2.61,-145.01 1.17,-61.54 4.88,-44.56 -9.63,-54.7 -2.47,-1.73 -6.48,-7.24 -8.73,-7.19 -1.91,0.04 -6.47,5.61 -8.7,7.27 -14.19,10.5 -10.84,-8.73 -9.28,70.96 0.84,42.83 2,85.87 2.41,128.67z"/>
   <path class="fil1" d="M468.42 917.83c3.65,-3.48 4.93,-6.61 11.17,-8.69 -3.89,-9.85 -34.78,-35.41 -34.96,-35.79 -0.47,-0.94 -0.41,-0.73 -0.39,-1.76 0.14,-7.46 10.31,3.53 12.93,5.75 4.09,3.47 7.59,6.55 11.03,10.59 4.26,-1.72 6.17,-4.66 13.02,-6.72 5.32,-1.61 11.56,-2.29 17.56,-2.29 21.15,0.01 23.7,6.3 30.56,9.01 2.75,-3.29 7.09,-7.39 10.6,-10.26 2.37,-1.94 13.53,-13.84 13.36,-6.07 -0.06,2.64 -4.57,5.53 -8.03,8.3 -3.25,2.61 -6.87,6.2 -9.75,8.94 -3.29,3.11 -15.89,15.87 -17.58,20.32 2.37,0.79 4.19,1.88 6.09,3.31 1.3,0.98 1.37,1 2.42,2.21 0.7,0.81 0.35,0.49 1.05,1.33 0.11,0.14 0.26,0.33 0.37,0.46l1.25 1.37c9.05,-5.76 8.37,-9.03 28.53,-14.67 11.7,-3.27 13.71,0.04 12.09,-30.88 -0.45,-8.65 -5.68,-7.96 -13.37,-7.92 -14.81,0.07 -25.53,0.96 -40.01,-2.63 -22.63,-5.6 -11.72,-6 -34.57,-0.16 -31.57,8.07 -53.21,-4.8 -54.02,10.7 -0.32,6.13 -0.24,14.93 -0.01,21.12 0.52,14.48 13.29,2.36 40.65,24.43z"/>
   <path class="fil2" d="M598.32 600.76c3.36,1.06 3.33,0.95 5.93,-1.27 1.79,-1.52 3.27,-2.65 5.12,-4.25 7.89,-6.8 18.2,-21.02 23.26,-30.44 8.96,-16.71 14.29,-37 13.22,-59.15 -2.39,-49.73 -31.94,-80.61 -64.42,-97.43 -7.29,-3.77 -9.11,0.5 -4.47,5.25 8.52,8.72 8.8,7.61 16.87,18.96 22.87,32.15 30.59,75.91 22.95,115.8 -1.85,9.65 -4.74,19.22 -8.09,27.65 -3.99,10.04 -11.67,20.33 -10.37,24.88z"/>
   <path class="fil2" d="M399.21 600.74c1.22,-4.27 -1.77,-7.24 -3.87,-11.08 -15.5,-28.42 -20.48,-63.41 -15.73,-95.6 4.33,-29.39 17.09,-57.25 37.44,-77.12 1.49,-1.46 2.09,-1.99 3.91,-3.89 1.97,-2.06 2.48,-2.36 1.71,-5.69 -10.29,-3.41 -38.2,22.69 -45.67,31.8 -33.71,41.15 -34.1,104.24 0.72,144.75 6.97,8.11 7.03,8.18 14.75,14.85 2.48,2.14 3.1,3.16 6.74,1.97z"/>
   <path class="fil1" d="M675.53 812.44c-4.61,12.13 -14.35,16.23 -25.5,20.41 -15.06,5.64 -1.59,15.02 -23.15,22.79 -16.29,5.88 -9.88,15.89 -21.48,24.45 -12.21,9 -28.82,14.87 -30.13,16.09 16.92,1.15 45.07,-5.27 60.23,-10.15 18.9,-6.09 13.5,-9.35 22.59,-13.2 10.24,-4.33 19.86,-1.48 24.44,-11.37 4.75,-10.23 3.28,-17.25 13.57,-22.23 5.17,-2.5 7.87,-2.73 8.87,-9 1.04,-6.62 -0.06,-8.8 2.87,-15.07 1.57,-3.35 5.29,-8.57 4.68,-12.72 -0.87,-5.91 -7.97,-1.9 -11.09,0.07 -9.39,5.94 -12.22,8.45 -25.91,9.92z"/>
   <path class="fil1" d="M709.94 792.95c6.04,5.02 10.41,0.87 16.54,-2.74 38.26,-22.53 25.48,-27.41 41.04,-36.81 5.72,-3.46 11.54,-5.97 13.18,-12.37 2.09,-8.15 -1.97,-16.07 2.74,-23.86 3.27,-5.4 10.53,-7.23 8.36,-16.3 -4.78,-19.94 -0.38,-12.48 -0.98,-23.95 -0.22,-4.09 -2.1,-6.99 -6.48,-4.91 -5.01,2.38 -8.55,13.21 -19.55,19.51 -11.84,6.78 -3.2,1.58 -9.98,15.7 -3.41,7.11 -7.04,9.81 -12.33,14.14 -9.46,7.75 -4.93,6.07 -7.04,18.57 -1.25,7.4 -8.22,10.54 -12.12,14.43 -7.07,7.05 -3.19,26.81 -13.39,38.59z"/>
   <path class="fil1" d="M418.61 898.15c-5.87,-6.32 -14.84,-8.94 -27,-27.63 -22.83,-35.09 -16.01,-36.16 -61.96,-48.6 -25.72,-6.96 -29.33,-15.24 -36.35,-18.73 1.51,10.52 11.79,29.99 16.85,37.46 8.13,12 15.63,20.54 26.61,28.67 16.84,12.47 54.93,28.61 81.85,28.83z"/>
   <path class="fil1" d="M781.33 666.94c3.29,-1.02 6.89,-1.19 9.01,-3.59 1.55,-1.76 3.66,-4.88 5.3,-7.16 25.75,-35.85 10.23,-32.63 23.92,-50.81 14.31,-19.02 -3.23,-20.8 -1.26,-37.17 0.97,-8.01 6.96,-10.62 0.97,-18.69 -5.54,-7.47 -5.42,-6.1 -8.55,-17.12 -2.31,-8.13 -7.44,-13.11 -11.22,-2.29 -2.46,7.06 -2.56,11.58 -6.37,18.49 -1.86,3.38 -3.8,4.83 -5.34,7.19 -3.38,5.17 5.48,12.87 -4.82,30.91 -10.28,17.99 7.35,14.42 -3.95,36.54 -7.35,14.39 4.69,14.6 2.31,43.71z"/>
   <path class="fil1" d="M797.71 521.44c4.04,-2.4 4.51,-3.23 10.91,-2.44 2.65,-8.67 11.54,-22.91 12.36,-32.89 0.72,-8.78 -1.99,-9.93 1.96,-19.04 8.84,-20.36 8.71,-13.46 -2.11,-32 -5.11,-8.76 -1.91,-10.4 -1.1,-18.96 0.75,-7.89 -5.78,-9.68 -9.07,-13.68 -3.67,-4.45 -5.15,-10.99 -8.32,-15.03 -6.36,-8.11 -8.8,2.36 -9.39,8.5 -2.17,22.61 -8.67,20.31 -7.33,26.03 0.7,3 2.08,5.37 2.67,9.13 1.33,8.5 -0.49,13.55 -2.73,20.38 -5.96,18.11 10.06,11.06 2.24,35.74 -3.28,10.33 3.28,15.48 8.03,29.7 0.24,0.72 0.54,1.71 0.8,2.37l1.09 2.19z"/>
   <path class="fil1" d="M286.43 801.93c-0.72,-4.4 -2.43,-7.43 -0.98,-11.33 5.11,-1.45 3.19,0.03 10.54,6.61 0.38,-8.9 -4.14,-31.63 -6.64,-40.06 -10.11,-34.18 -37.48,-36.89 -57.5,-60.81 -1.44,-1.72 -8.48,-13.05 -9.72,-13.57 -2.63,42.04 9.93,73.37 37.31,99.65 6.02,5.78 19.7,17.15 26.99,19.54z"/>
   <path class="fil1" d="M201.39 377.23c0.01,7.12 0.57,22.13 3.13,28.03 2.22,-1.17 4.65,-4.76 6.53,-6.71 2.09,-2.17 4.67,-6.03 8.38,-3.53 2.01,3 0.13,3.99 -0.61,7.78 3.07,-1.87 15.88,-17.76 18.6,-21.46 17.97,-24.41 12.09,-42.17 10.67,-67.93 -0.94,-16.93 1.99,-21.87 5.36,-36.02 -11.23,4.92 -29.46,27.82 -36.39,39.22 -10.2,16.78 -15.71,37.24 -15.68,60.63z"/>
   <path class="fil1" d="M182.87 600.65c-0,24.03 8.01,45.59 20.24,64.46l12.11 16.69c1.92,-2.23 1.52,-5.39 1.93,-8.53 0.57,-4.36 1.13,-5.3 5.57,-4.98 1.43,2.51 1.36,5.37 3.6,7.74 2.52,-4.98 6.2,-29.45 6.54,-36.44 1.72,-36.24 -22.84,-47 -33.53,-75.77 -1.69,-4.53 -2.69,-13.52 -4.85,-16.86 -6.69,17.53 -11.59,32.2 -11.59,53.7z"/>
   <path class="fil1" d="M189.91 542.01c1.54,-1.85 3.52,-7.24 4.65,-8.29 5.56,-5.14 5.15,3.26 5.7,6.57 9.56,-16.43 25.15,-35.31 22.7,-60.82 -1.09,-11.41 -5.49,-23.04 -8.52,-33.49 -4.48,-15.43 -3.85,-22.52 -2.63,-38.65 -5.4,3.04 -16.36,21.06 -19.06,25.85 -4.99,8.85 -10.09,21.35 -12.45,32.72 -4.51,21.75 0.07,58.38 9.62,76.11z"/>
   <path class="fil1" d="M738.99 302.08c16.09,8.44 8.67,27.79 15.9,33.13 3.9,2.88 7.09,2.85 9.63,7.49 5.82,10.61 -3.23,13.06 10.22,22.48 7.83,5.48 10.47,8.44 15.43,18 5.8,-6.31 7.36,0.24 7.9,-19.96 0.2,-7.56 0.98,-20.63 -2.31,-26.85 -1.83,-3.45 -3.64,-4.79 -4.29,-9.78 -0.61,-4.67 0.4,-8.74 0.44,-13.22 0.1,-10.52 -6.73,-10.33 -13.71,-14.72 -11.48,-7.24 -5.7,-12.15 -10.27,-17.75 -3.52,-4.31 -9.77,-1.18 -19.69,-9.13 -6.54,-5.24 -16.3,-8.5 -11.76,5.55 3.86,11.94 3.79,11.26 2.5,24.76z"/>
   <path class="fil1" d="M665.25 195.33c17.33,6.63 13.22,26.38 20.63,30.61 4.32,2.47 7.95,2.36 10.93,6.19 7.22,9.3 -1.52,13.09 13.6,20.66 13.81,6.92 15.31,11.01 20.36,13.94 7.34,-6.62 -0.61,-40.76 -4.14,-45.73 -7.54,-10.61 -5.33,-5.82 -7.04,-21.15 -1.17,-10.49 -6.74,-9.91 -15.41,-13.24 -12.41,-4.76 -7.22,-8.84 -12.59,-15.44 -4.1,-5.04 -9.76,0.08 -21.27,-6.75 -8.79,-5.21 -16.87,-4.52 -10.82,7.7 4.39,8.88 6.44,11.19 5.76,23.19z"/>
   <path class="fil1" d="M250.78 271.14c4.7,-1.68 6.26,-5.99 12.31,-5.27 2.53,5.26 -0.74,4.04 -1.88,9.26 6.52,-1.93 22.97,-11.17 28.07,-14.76 28.98,-20.44 21.98,-43.87 37.63,-69.8 3.11,-5.14 7.08,-8.48 9.34,-12.81 -10.56,1.84 -23.61,8.12 -31.98,12.74 -5.17,2.85 -15.73,10.11 -19.6,13.88 -2.53,2.46 -3.59,3.83 -5.76,5.92 -11.76,11.35 -25.15,38.65 -28.12,60.85z"/>
   <path class="fil3" d="M783.88 550.75c4.37,-2.05 7.8,-10.84 8.52,-17.02 2.08,-17.78 -12.03,-29.85 -11.3,-42.09 0.48,-8.02 6.42,-13.99 1.65,-21.62 -11.83,-18.91 5.25,-21.9 -1.08,-42.54 -1.94,-6.34 -6.24,-13.01 -10.04,-16.39 -3.72,-3.3 -9.32,-9.81 -14.28,-11.93 -4.44,10.91 4.03,18.77 -1.39,42.18 -4.22,18.22 -7.1,21.4 0.54,39.37 2.41,5.67 5.04,11.03 6.82,17.3 2.07,7.35 1.24,13.35 5.6,18.55 3.13,3.73 7.19,6.05 11.05,13.07 5.31,9.65 1.55,14.64 3.91,21.11z"/>
   <path class="fil3" d="M273.95 855.2c2.77,1.43 7.59,2.6 10.74,3.91 28.76,11.91 31.73,32.14 57.68,47.41 14.11,8.31 30.14,10.98 48.98,10.87 9.37,-0.06 47.85,-3.42 53.47,-6.92 -19.57,-10.65 -79.91,-1.83 -127.07,-50.17 -6.02,-6.17 -2.91,-8.39 -19.21,-10.18 -4.64,-0.51 -9.54,-0.51 -13.97,0.38 -2.13,0.43 -4.17,1.07 -5.94,1.77 -2.52,0.99 -3.34,1.4 -4.69,2.93z"/>
   <path class="fil3" d="M687.65 803.81c11.2,-3.45 21.24,-15.66 24.2,-28.94 1.7,-7.65 0.97,-15.56 5.07,-21.46 3.41,-4.91 11.8,-9.13 12.91,-14.33 1.17,-5.44 -2.15,-12.82 6.46,-20.01 5.5,-4.59 9.66,-6.66 13.32,-13.93 6.84,-13.61 1.76,-37.33 -3.3,-42.7 -8.98,6.09 -6.09,14.95 -19.76,30.54 -7.73,8.8 -18.42,14.17 -22.54,28.79 -1.96,6.99 -2.4,14.65 -3.93,21.87 -1.44,6.8 -5.88,14.3 -6.47,19.08 -0.96,7.74 3.31,13.41 1.62,22.64 -1.56,8.49 -5.26,12.13 -7.6,18.46z"/>
   <path class="fil3" d="M765.97 683.63c11.27,-9.5 12.17,-24.27 8.22,-38.4 -2.19,-7.83 -5.19,-12.87 -1.65,-21.48 3.22,-7.86 7.52,-9.61 3.27,-19.11 -8.74,-19.54 19.76,-28.11 -1.11,-58.82 -2.62,-3.85 -9.08,-12.09 -12.26,-13.68 -5.53,10.98 0.65,17.66 -6.92,38.8 -4.96,13.82 -11.48,19.67 -7.63,37.53 1.36,6.35 3.44,12.28 4.51,18.75 1.19,7.2 -0.52,15.23 2.38,21.06 2.65,5.31 6.42,8.42 8.69,14.67 3.1,8.53 1.59,12.3 2.5,20.7z"/>
   <path class="fil3" d="M581.35 887.03c5.02,-1.3 12.38,-5.53 16.43,-8.33 16.26,-11.26 8.37,-20.26 23.63,-26.97 8.59,-3.78 11.36,-2.18 14.43,-11.28 5.88,-17.44 15.93,-9.16 28.72,-21.87 10.02,-9.96 11.06,-23.66 10.96,-40.68 -8.74,1.39 -13.37,12.63 -28.78,22.08 -25.26,15.49 -21.85,1.91 -40.08,35.44 -1.66,3.05 -2.84,4.94 -4.72,7.72 -2.17,3.21 -3.76,4.33 -6.19,7.04 -6.14,6.88 -4.76,8.46 -6.64,18.93 -0.61,3.36 -1.44,6.77 -2.75,9.81 -1.74,4.06 -3.5,5.27 -5,8.09z"/>
   <path class="fil3" d="M733.23 284.66c-5.96,-25.74 -29.3,-23.76 -35.96,-35.85 -3.33,-6.05 -1.38,-13.11 -8.17,-15.98 -7.32,-3.11 -9.97,-3.05 -12.35,-10.96 -2.37,-7.89 -2.37,-12.27 -6.98,-17.19 -7.3,-7.81 -23.26,-10.73 -37.69,-10.17 0.11,9.34 10.8,10.74 18.2,28.89 6.67,16.4 4.26,21.51 18.37,29.89 5,2.97 10.17,5.61 14.57,8.78 7.73,5.55 8.4,9.14 13.06,11.07 3.91,1.61 14.77,3.07 19.72,4.41 7.25,1.95 11.61,5.05 17.23,7.11z"/>
   <path class="fil3" d="M787.09 398.61c1.7,-28.11 -22.7,-25.53 -25.41,-42.8 -1.79,-11.43 0.84,-10.39 -8.26,-15.26 -12.13,-6.48 -3.32,-20.27 -13.99,-31.94 -5.64,-6.17 -21.41,-12.16 -33.58,-12.59 0.35,7.34 4.47,10.84 7.35,15.47 13,20.85 3.95,35.02 20.39,48.11 4.51,3.59 8.18,6.13 12.37,10.2 6.12,5.96 7.85,10.49 10.76,12.61 3.67,2.69 11.33,4.34 16.13,6.44 2.53,1.11 5.39,2.65 7.5,4.18l4.52 4.07c1.69,1.35 0.2,0.43 2.23,1.5z"/>
   <path class="fil3" d="M572.36 901.7c-5.08,7.84 -16.84,5.19 -23.18,10.34 10.57,6.07 34,-1.23 42.17,-6.3 16,-9.94 43.95,6.55 62.6,-2.02 5.06,-2.32 5.98,-6.64 9.56,-9.11 6.02,-4.15 23.03,-3.26 31.78,-5.64 10.88,-2.95 4.69,-12.98 13.04,-24.28 8.64,-11.7 18.61,-8.97 19.84,-17.1 -5.68,-3.15 -16.48,-3.05 -20.54,-7.97 -2.73,1.15 -4.48,2.59 -7.79,4.13 -4.08,1.91 -5.14,2.2 -6.94,5.52 -3.1,5.72 -3.45,12.3 -7.04,17.88 -5.55,8.63 -18.49,7.68 -25.65,10.92 -4.32,1.96 -3.94,3.11 -6.85,5.61 -12.09,10.39 -60.07,19.23 -81,18.02z"/>
   <path class="fil3" d="M184.28 556.07c4.17,-6.33 0.77,-9.68 -1.65,-16.05 -8.97,-23.55 -13.61,-53.3 -7.37,-78.44 1.87,-7.55 4.94,-10.51 2.1,-18.32 -4.01,-11.02 -10.63,-22.45 -20.25,-25.45 2.96,15.56 5.41,24.2 1.24,40.96 -6.63,26.59 -14.33,41.46 3.72,73 2.59,4.53 6.53,10.34 9.74,13.62 2.97,3.03 9.17,9.44 12.46,10.67z"/>
   <path class="fil3" d="M186.14 723.97c2.55,4.43 12.93,7.67 23.21,26.76 5.77,10.73 9.04,24.11 15.38,33.67 11.05,16.64 35.83,33.67 66.33,32.1 -2.23,-9.65 -11.46,-9.86 -27.18,-22.2 -8.8,-6.91 -17.76,-16.03 -24.5,-25.31 -13.35,-18.39 -10.03,-19.69 -16.73,-32.34 -3.36,-6.34 -25.1,-15.72 -36.5,-12.67z"/>
   <path class="fil3" d="M196.86 416.29c1.87,-4.55 3.38,-1.56 1.96,-8.41 -0.64,-3.08 -1.28,-5.99 -1.76,-9.28 -8.5,-58.19 16.81,-81.14 15.76,-91.01 -1.32,-12.45 -6.66,-26.64 -15.11,-30.43 2.21,39.94 -15.46,46.74 -20.96,70.82 -3.06,13.38 -1.65,27.3 2.47,39.79 3.07,9.3 11.32,25.35 17.65,28.52z"/>
   <path class="fil3" d="M215.82 696.05c0.26,-7.23 0.68,-4 -8.09,-14.54 -10.39,-12.48 -20.58,-30.38 -25.58,-46.82 -3.15,-10.36 -4.98,-19.95 -5.2,-30.94 -0.1,-5.31 0.5,-6.45 -2.06,-10.05 -4.55,-6.4 -16.69,-19.66 -28.54,-19.43 5.25,11.14 10.9,15.17 13.48,33.66 3.99,28.5 -3.94,39.92 22.5,67.83 5.98,6.31 22.98,19.29 33.48,20.28z"/>
   <path class="fil3" d="M718.22 804.01c14.28,-3.97 1.72,-2 20.12,-4.22 10.08,-1.22 28.76,-7.03 32.84,-16.28 6.74,-15.27 4.71,-8.65 27.92,-21.1 16.48,-8.84 -1.44,-17.66 10.93,-36.56 3.17,-4.85 10.33,-9.12 9.6,-15.44 -8.85,-0.62 -12.89,1.41 -22.7,-0.16l-9.49 11.65c-2.16,6.08 0.48,13.84 -1.28,20.65 -3.97,15.31 -15.73,8.69 -25.68,27.17 -3.43,6.37 -10.99,11.57 -16.88,15.81 -3.99,2.87 -8.12,5.95 -12.98,8.81l-10.7 5.64c-2.5,1.78 -1.68,-0.7 -1.69,4.03z"/>
   <path class="fil3" d="M827.66 556.57c-0.96,6.29 -4.79,10.54 -3.5,16.72 0.97,4.65 4.47,9.39 5.94,14.4 3.85,13.06 -6.73,19.69 -10.49,27.87 -2.33,5.07 -1.13,10.93 -3.46,16.78 -5.55,13.92 -20.98,33.33 -21.62,34.52 -1.4,2.63 -1.22,1.02 0.31,3.62l17.08 -10.46c27.39,-18.52 19.45,-27.58 21.31,-34.82 1.23,-4.78 9.44,-12.35 12.69,-16.02 19.17,-21.63 -1.02,-16.69 -0.22,-39.7 0.35,-10.04 8.81,-21.47 2.09,-21.39 -1.92,0.02 -7.12,3.53 -9.23,4.68 -4.49,2.43 -5.9,2.21 -10.92,3.8z"/>
   <path class="fil3" d="M825.76 413.04c-2.66,18.3 -3.5,13.81 5.33,27.33 7.69,11.78 1.58,18.86 -2.92,28.81 -5.54,12.25 5.38,8.19 -11.19,44.86 -3.26,7.22 -5.14,6.36 -2.33,12.67 7.19,-3.17 18.39,-15.96 23.28,-22.87 3.3,-4.65 6.26,-9.96 4.68,-17.29 -2.61,-12.14 4.38,-15.17 13.36,-31.61 4.64,-8.5 0.58,-11.4 -3.65,-16.33 -14.02,-16.32 -2.2,-27.05 -6.45,-37.15 -4.48,-0.06 -8.16,5.82 -20.1,11.57z"/>
   <path class="fil3" d="M238.98 280.53c6.51,-3.57 4.92,-6.51 6.93,-15.37 1.37,-6.08 2.98,-11.74 4.94,-17.54 5.92,-17.46 16.59,-36.93 30.53,-48.08 1.83,-1.46 4.98,-3.81 6.48,-5.2 6.04,-5.58 6.5,-29.59 0.73,-36.28 -1.24,1.5 -4.96,11.91 -6.97,15.25 -11.9,19.8 -22.32,22.27 -33.51,35 -14.71,16.72 -17.34,48.03 -9.13,72.22z"/>
   <path class="fil3" d="M695.66 166.81c4.79,14.17 4.52,12.41 17.89,17.43 11.34,4.26 10.31,10.53 11.94,23.23 0.85,6.63 2.8,6.89 5.89,11.1 2.55,3.48 3.6,8.55 4.49,13.36 1.16,6.29 2.88,16 3.03,22.39 0.24,9.94 -0.45,6.78 1.97,7.77 2.74,-1.62 0.48,-0.56 2.74,-7.47 3.71,-11.37 4.72,-7.52 6.99,-25.17 3.04,-23.65 -10.56,-12.11 -9.13,-32.05 2.18,-30.38 -2.33,-22.38 -14.66,-27.16 -17.26,-6.69 -11.75,-20.51 -20.19,-22.14 -4.55,3.48 -5.33,14.09 -10.96,18.71z"/>
   <path class="fil3" d="M773.37 278.37c1.46,11.61 3.11,13.57 10.24,17.22 17.46,8.92 13.04,13.3 12.94,27.19 -0.07,10.57 10.49,10.46 6.24,48.76 -0.6,5.43 -2.64,7.62 1.14,9.34 1.46,-2.12 2.24,-6.2 3.48,-8.72 5.41,-10.93 6.8,-8.26 11.39,-26.66 3.48,-13.97 -2.79,-14.3 -5.04,-19.37 -2.21,-4.99 1.4,-16.57 2.32,-22.5 3.54,-22.99 -13,-8.11 -22.55,-28.09 -2.09,-4.37 -3.36,-20.55 -9.36,-12.28 -4.28,5.91 -5.15,10.62 -10.81,15.12z"/>
   <path class="fil3" d="M412.78 885.24c1.48,-23.03 -12.17,-44.21 -27.61,-58.11 -11.54,-10.39 -34.39,-21.44 -46.22,-34.69l-3.28 -2.85c-0.19,10.02 2.38,17.92 5.94,26.61 1.68,4.09 1.59,3.26 6.33,4.54 36.04,9.7 33.08,28.32 54.18,54.05 1.54,1.88 8.02,9.42 10.66,10.45z"/>
   <path class="fil3" d="M202.23 552.28c14.67,-4.09 30.61,-27.13 35.37,-43.9 4.8,-16.91 2.94,-36.94 4.91,-54.97 0.72,-6.63 2.4,-11.52 3.46,-17.42 -4.23,1.65 -10.22,6.78 -12.31,9.29 -1.26,1.51 -8.37,10.35 -8.94,11.96 -2.63,7.47 15.95,21.57 -7.85,67.02 -3.96,7.57 -15.37,23.15 -14.64,28.02z"/>
   <path class="fil3" d="M231.21 685.29c5.52,-2.68 12.63,-14.98 15.63,-22.88 3.88,-10.16 5.26,-21.99 3.75,-33.99 -2.87,-22.76 -13.64,-40.46 -13.94,-64.8 -4.6,3.04 -13.19,19.54 -13.69,26.48 -0.16,2.23 5.01,9 6.67,11.91 2.5,4.38 4.76,8.88 6.37,13.94 8.71,27.44 -5.37,57.49 -4.78,69.35z"/>
   <path class="fil3" d="M263.17 704.96c0,13.66 -2.41,6.32 13.9,20.87 26.08,23.25 21.72,66.65 26.18,75.48 11.35,-21.22 7.57,-46.78 -3.85,-65.89 -7.62,-12.74 -18.41,-25.12 -25.59,-37.47 -2.29,-3.93 -4.74,-10.77 -6.81,-13.8 -2.34,6.17 -3.83,13.17 -3.83,20.81z"/>
   <path class="fil3" d="M255.65 328.7c-0.67,18.6 3.15,30.81 -10.56,51.75 -6.91,10.55 -27.25,32.02 -28.11,35.04 20.04,-3.25 37.09,-22.91 44.01,-39.37 6.37,-15.15 8.42,-33.48 13.71,-48.55 1.94,-5.53 4.73,-10.24 6.43,-15.15 -12.11,2.74 -18.34,11.88 -25.49,16.29z"/>
   <path class="fil1" d="M491.61 910.07c-5.91,1.25 -11.38,3.74 -15.06,6.97 -6.9,6.07 -4,7.45 0.68,13.43 9.68,12.34 8.05,13.88 18.49,11.2 11.03,-2.83 10.04,8.59 21.57,-7.24 1.62,-2.23 2.78,-3.74 4.74,-6.17 1.8,-2.22 4.22,-4.07 2.35,-7.48 -4.26,-7.75 -20.73,-13.25 -32.76,-10.71z"/>
   <path class="fil1" d="M561.85 971.98c9.18,12.23 60.21,11.66 68.67,7 -1.72,-3.38 -7.9,-7.85 -8.87,-11.68 1.35,-2.75 10.62,-7.19 13.74,-8.13 -8.07,-0.24 -15.61,1.48 -24.94,0.72 -9.95,-0.81 -14.99,-3.48 -23.24,-5.17 -7.6,10.13 -21.96,13.93 -25.35,17.26z"/>
   <path class="fil1" d="M362.17 959.17c3.19,1.03 12.33,5.35 13.72,8.14 -0.93,4.14 -7.02,7.95 -8.86,11.68 8.53,4.64 59.35,5.22 68.66,-7 -3.6,-3.55 -16.01,-5.91 -25.35,-17.26 -7.91,1.57 -12.97,4.22 -22.56,5.11 -9.71,0.89 -17.14,-0.86 -25.61,-0.66z"/>
   <path class="fil3" d="M257.64 285.37c8.59,2.78 25.48,-2.35 32.35,-5.61 22.72,-10.8 32.53,-32.39 48.46,-51.98l9.92 -9.86c-9.11,-0.37 -16.33,1.52 -24.51,4.59 -4.16,1.56 -3.56,1.1 -4.8,5.37 -3.09,10.65 -7.63,19.23 -13.73,25.94 -19.53,21.49 -46.43,25.84 -47.68,31.55z"/>
   <path class="fil1" d="M408.56 940.11c-0.96,6.59 7,12.98 10.45,15.87 3.66,3.07 4.35,3.07 10.48,3.05 18.04,-0.04 40.02,-1.7 49.35,-17.42 -1.65,-2.61 -4,-5.8 -5.56,-7.68 -11.64,3.43 -10.67,6.2 -29.75,7.08 -9.03,0.41 -29.14,-3.32 -34.97,-0.9z"/>
   <path class="fil1" d="M518.7 941.61c9.11,15.66 31.45,17.38 49.37,17.42 6.11,0.02 6.82,0.01 10.47,-3.06 3.39,-2.85 11.4,-9.35 10.43,-15.83 -8.24,-3.56 -26.74,4.11 -49.63,-0.9 -6.39,-1.4 -10.17,-3.84 -15.07,-5.3 -1.51,1.74 -3.99,5.15 -5.57,7.67z"/>
   <path class="fil2" d="M498.78 389.94c22.93,20.61 38.77,-6.21 36.36,-17.89 -4.9,0.35 -4.07,9.63 -16.12,11.62 -4.46,0.73 -8.75,-0.09 -12.18,-2.03 -4.46,-2.53 -5.52,-5.63 -8.06,-6.8 -3.2,1.38 -7.32,10.55 -19.5,8.93 -4.14,-0.55 -7.3,-2.44 -9.67,-4.6 -5.95,-5.41 -3.26,-6.76 -7.22,-7.14 -2.69,12.93 14.99,38.18 36.39,17.92z"/>
   <path class="fil2" d="M467.57 101.44c-1.2,4.75 -5.01,11.76 -2.72,16.2 6.17,11.97 8.76,11.69 12.65,29.43 0.85,3.89 1.74,15.05 3.18,17.39 4.91,-13.27 1.09,-28.76 -1.79,-41.79l5.87 -4.95c5.99,2.59 8.94,5.26 13.83,-1.46 2.94,-4.05 5.13,-10.05 5.11,-16.28 -0.16,0.14 -0.36,0.18 -0.43,0.47l-1.17 1.42c-0.48,0.62 -0.33,0.74 -1.38,1.77 -6.37,6.3 -12.05,-3.67 -12.32,-3.94 -2.93,3.13 -3.26,8.09 -9.13,8.28 -5.85,0.2 -8.16,-4.7 -11.72,-6.54z"/>
   <path class="fil2" d="M543.11 138.24c-2,-7.46 -3.87,-12.77 -7.07,-19.35 -1.99,-4.1 -7.09,-14.07 -9.8,-16.14 -8.01,20.83 4.17,15.56 12.26,44.86 0.99,3.6 2.22,14.78 3.88,16.75 1.26,-1.66 4.63,-20.22 8.77,-30.56 8.8,-22 13.21,-10.65 13.01,-33.13 -5.56,2.83 -14.34,19.84 -17.06,26.75 -1.31,3.33 -1.93,8.32 -3.98,10.83z"/>
   <path class="fil2" d="M450.36 164.48c6.16,-18.56 -3.77,-58.34 -13.46,-63.2 -1,4.62 -4.72,12.3 -2.62,16.59 0.98,2.01 2.72,4 3.91,6.23 3.96,7.44 6.74,14.77 8.69,23.28 0.85,3.75 1.65,14.88 3.49,17.1z"/>
   <path class="fil2" d="M499.51 142.66c2.44,1.6 6.08,3.79 8.79,4.8 4.37,1.63 5.65,-1.54 7.25,-4.91 1.81,-3.83 2.61,-6.42 -0.36,-9 -1.72,-1.5 -6.64,-4.28 -9.74,-4.78l-5.94 13.9z"/>
  </g>
 </g>
</svg>
